<svg xmlns="http://www.w3.org/2000/svg" viewBox="0 0 158.5857 158.5954"><defs><style>.cls-1{fill:none;stroke: rgb(51, 109, 225);stroke-linecap:round;stroke-linejoin:round;stroke-width:6px;}</style></defs><title>Asset 5</title><g id="Layer_2" data-name="Layer 2"><g id="ICONS"><path class="cls-1" d="M144.5464,118.9273a12.6949,12.6949,0,0,0,1.4395-3.6043,10,10,0,0,0,.0881-3.4375,6.5334,6.5334,0,0,0-.4269-1.5012,6.2657,6.2657,0,0,0-.7129-1.2877,5.3135,5.3135,0,0,0-2.1724-1.7652,6.2052,6.2052,0,0,0-3.8915-.3127c-.03.005-.0625.0134-.0944.0216l.0944-.0216a.4206.4206,0,0,0-.0811.02,8.0836,8.0836,0,0,1-1.3555.1963,7.9721,7.9721,0,0,1-3.9908-.8545,9.2551,9.2551,0,0,1-2.9507-2.3668,11.1289,11.1289,0,0,1-1.8789-3.1827c-.1084-.2832-.2017-.5683-.2856-.8568q-.1416-.4394-.2437-.8833a9.5318,9.5318,0,0,1-.2394-1.7811,10.6354,10.6354,0,0,1,.0348-1.8051,8.2853,8.2853,0,0,1,.1542-.8966c.0656-.2985.1214-.604.2094-.9036a9.0871,9.0871,0,0,1,.6832-1.7069,8.6865,8.6865,0,0,1,.923-1.5436c.1782-.242.3768-.4747.5726-.7025q.2827-.3443.6-.6642a10.607,10.607,0,0,1,1.3924-1.1771,13.5946,13.5946,0,0,1,1.5628-.9616,10.6262,10.6262,0,0,1,1.7193-.7019,9.4307,9.4307,0,0,1,3.7867-.39,7.8648,7.8648,0,0,1,4.84,2.34l.0585.0609-.0688-.0694.01.0085.0585.0609a6.9692,6.9692,0,0,0,1.5906,1.2012,5.7134,5.7134,0,0,0,1.8654.6433,5.8086,5.8086,0,0,0,5.2289-2.04,8.19,8.19,0,0,0,1.0108-1.334,10.7869,10.7869,0,0,0,.7674-1.6012,12.4945,12.4945,0,0,0,.5409-1.8182,12.65,12.65,0,0,0,.2-1.983V77.27a12.6461,12.6461,0,0,0-.2-1.9829,12.4864,12.4864,0,0,0-.5408-1.8176,10.7666,10.7666,0,0,0-.7674-1.6007,8.1915,8.1915,0,0,0-1.0106-1.3333,5.809,5.809,0,0,0-5.2286-2.0383,5.7161,5.7161,0,0,0-1.8655.6431,6.9728,6.9728,0,0,0-1.5906,1.2012c-.0233.0209-.0461.0451-.0689.0694l.0689-.0694a.4382.4382,0,0,0-.0585.0609,7.8649,7.8649,0,0,1-4.84,2.34,9.4288,9.4288,0,0,1-3.7867-.39,10.6176,10.6176,0,0,1-1.7193-.702,13.5709,13.5709,0,0,1-1.5627-.9616,10.6136,10.6136,0,0,1-1.3924-1.1771q-.3171-.32-.6-.6642c-.1954-.2281-.3943-.4607-.5725-.7028a8.6908,8.6908,0,0,1-.923-1.5434,9.1073,9.1073,0,0,1-.683-1.7071c-.088-.3-.144-.6051-.2094-.9036a8.2849,8.2849,0,0,1-.1541-.8966,10.635,10.635,0,0,1-.0348-1.8051,9.5405,9.5405,0,0,1,.24-1.7811q.1018-.4436.2435-.8832c.0843-.2886.1775-.5736.2859-.8569a11.1267,11.1267,0,0,1,1.8791-3.1825,9.2535,9.2535,0,0,1,2.9507-2.3667,8.0637,8.0637,0,0,1,2.6219-.8022,7.5481,7.5481,0,0,1,2.7244.1444l.0812.02-.0944-.0216a.02.02,0,0,1,.0132.0015l.0812.02a6.206,6.206,0,0,0,3.8915-.3126,5.31,5.31,0,0,0,2.1722-1.7656,6.2677,6.2677,0,0,0,.7127-1.2883,6.5416,6.5416,0,0,0,.4267-1.5018,10.0071,10.0071,0,0,0-.0887-3.4387,12.7011,12.7011,0,0,0-1.44-3.6048"/><path class="cls-1" d="M144.5464,118.9273a12.5594,12.5594,0,0,1-2.5414,2.9326,9.9822,9.9822,0,0,1-3.0078,1.66,5.8789,5.8789,0,0,1-5.5671-.8479,6.2187,6.2187,0,0,1-2.07-3.313l-.02-.0812-.0047-.0126.0243.0938-.02-.0812a7.8419,7.8419,0,0,0-3.04-4.4439,9.2452,9.2452,0,0,0-3.4579-1.5317A10.9742,10.9742,0,0,0,121.15,113.1a14.6411,14.6411,0,0,0-1.7932.3312,9.5222,9.5222,0,0,0-1.69.6145,9.2794,9.2794,0,0,0-1.5914.8656c-.2516.1692-.4873.36-.7277.5514a8.4636,8.4636,0,0,0-1.3464,1.2811q-.1486.1767-.287.36c-.0946.12-.1919.2349-.2825.3562a8.8126,8.8126,0,0,0-.9367,1.5457c-.1264.2782-.2535.5476-.37.8214q-.1725.4137-.3074.8466a11.4008,11.4008,0,0,0-.3956,1.7874,10.2526,10.2526,0,0,0,1.4462,7.2116,8.0349,8.0349,0,0,0,1.8813,1.994,7.9135,7.9135,0,0,0,2.4319,1.2123.4264.4264,0,0,1,.0807.0233l-.093-.0285c.0319.0088.0638.0176.093.0285a6.2611,6.2611,0,0,1,3.2336,2.2085,5.8727,5.8727,0,0,1,.6218,5.5894,9.48,9.48,0,0,1-1.782,2.9319c-.2018.232-.4141.4631-.6416.6834q-.3483.3193-.7314.6211a13.6015,13.6015,0,0,1-1.66,1.1164"/><path class="cls-1" d="M116.3033,146.0526a9.9531,9.9531,0,0,1-1.8265.8159,12.4586,12.4586,0,0,1-1.8322.4815,8.5421,8.5421,0,0,1-1.7816.1318,9.13,9.13,0,0,1-1.6586-.1818,7.0029,7.0029,0,0,1-1.4765-.47,6.3247,6.3247,0,0,1-1.2612-.77,5.34,5.34,0,0,1-1.6792-2.2468,6.16,6.16,0,0,1-.1516-3.8908l.0235-.08a.02.02,0,0,0,.0021-.0132l-.0256.0929.0235-.08a7.9378,7.9378,0,0,0-.447-5.3793,10.3632,10.3632,0,0,0-5.3508-5.0509,12.7093,12.7093,0,0,0-1.7129-.5873,9.6913,9.6913,0,0,0-1.7753-.3275c-.2985-.03-.5922-.0284-.8948-.04a8.687,8.687,0,0,0-.9072.0108,8.3722,8.3722,0,0,0-.905.1079c-.3015.0511-.6.13-.9066.1908a8.38,8.38,0,0,0-1.7373.5993c-.2732.1365-.5442.2646-.8088.4019a8.8191,8.8191,0,0,0-.77.4614q-.3742.25-.7266.5385c-.2345.1937-.462.3975-.6852.5912a10.4079,10.4079,0,0,0-1.2354,1.3273,12.68,12.68,0,0,0-1.0219,1.5421,10.4374,10.4374,0,0,0-.7716,1.679,9.3515,9.3515,0,0,0-.5419,3.7587,7.9421,7.9421,0,0,0,2.1466,4.9479.4385.4385,0,0,1,.0586.0613l-.0667-.0722c.0234.024.0468.048.0667.0722A7.1683,7.1683,0,0,1,86.8,146.2941a5.6807,5.6807,0,0,1,.5681,1.888,5.3828,5.3828,0,0,1-.418,2.78,6.52,6.52,0,0,1-1.8246,2.3711A8.83,8.83,0,0,1,82.1267,155a12.4028,12.4028,0,0,1-1.8355.4513q-.48.0805-.9788.127-.4977.0249-1.01.0134"/><path class="cls-1" d="M78.3026,155.5916a13.5468,13.5468,0,0,1-1.985-.1917c-.3191-.0558-.6315-.12-.936-.1994q-.4565-.1347-.8884-.2992a9.6293,9.6293,0,0,1-2.9589-1.7312,5.8872,5.8872,0,0,1-2.1071-5.2218,6.2473,6.2473,0,0,1,1.7979-3.4752l.06-.0586.0083-.01-.0684.069.06-.0586a7.8829,7.8829,0,0,0,1.5647-2.2176,8.0956,8.0956,0,0,0,.71-2.6527,9.4154,9.4154,0,0,0-.4417-3.77,10.8783,10.8783,0,0,0-1.7069-3.2674c-.1842-.2348-.375-.4751-.5733-.7114q-.2982-.35-.6215-.6695a9.7967,9.7967,0,0,0-1.3864-1.1383,8.8429,8.8429,0,0,0-1.5494-.93c-.2726-.13-.5564-.2338-.842-.3455a8.3907,8.3907,0,0,0-1.7811-.5077c-.3028-.05-.6073-.0815-.904-.1241a8.755,8.755,0,0,0-1.801-.0243,13.7336,13.7336,0,0,0-1.7779.2653,10.74,10.74,0,0,0-1.739.567,10.2546,10.2546,0,0,0-5.4848,4.9036,7.8114,7.8114,0,0,0-.5787,5.3386.4361.4361,0,0,1,.0208.0815l-.0225-.0948c.0085.0321.0171.0642.0225.0948a6.2805,6.2805,0,0,1-.2673,3.9106,5.8507,5.8507,0,0,1-4.5038,3.3592,10.4487,10.4487,0,0,1-7.0562-1.443"/><path class="cls-1" d="M40.5658,145.0391A10.38,10.38,0,0,1,35.9,139.5534a7.3488,7.3488,0,0,1-.3428-1.5091,6.1372,6.1372,0,0,1,.0246-1.475,5.353,5.353,0,0,1,1.0873-2.5869,6.1453,6.1453,0,0,1,3.2749-2.1008l.0807-.02a.02.02,0,0,0,.0124-.0049l-.0931.025.0807-.02a7.969,7.969,0,0,0,4.4136-3.1128,9.3209,9.3209,0,0,0,1.4919-3.4869,11.8684,11.8684,0,0,0,.1491-3.6879,11.6464,11.6464,0,0,0-.3664-1.7744,9.7464,9.7464,0,0,0-.62-1.701c-.1273-.2722-.2746-.5291-.4225-.7922a8.735,8.735,0,0,0-.4721-.7783,8.4307,8.4307,0,0,0-.5546-.7269c-.1987-.2338-.4169-.4534-.6267-.6867a8.4406,8.4406,0,0,0-1.4053-1.1934,10.872,10.872,0,0,0-1.5492-.9237,11.8659,11.8659,0,0,0-3.4675-1.0282q-.4578-.0583-.9247-.0792c-.3029-.02-.6072-.0279-.9136-.022a10.5773,10.5773,0,0,0-1.8443.1962,9.4066,9.4066,0,0,0-3.5163,1.4522,7.8851,7.8851,0,0,0-3.1535,4.3591.4426.4426,0,0,1-.0226.0814l.0278-.0938c-.0087.0322-.0172.0644-.0278.0938a6.2914,6.2914,0,0,1-2.16,3.2586,5.3422,5.3422,0,0,1-2.6012,1.0537,6.7325,6.7325,0,0,1-2.9718-.3626,8.7284,8.7284,0,0,1-1.5241-.6927,10.7843,10.7843,0,0,1-1.4356-1.0463,12.5066,12.5066,0,0,1-1.3393-1.3452,13.4036,13.4036,0,0,1-1.12-1.6553"/><path class="cls-1" d="M13.0673,117.167a11.4513,11.4513,0,0,1-.8565-1.8062,12.4978,12.4978,0,0,1-.4877-1.8352,9.97,9.97,0,0,1-.1758-1.7695,9.259,9.259,0,0,1,.1745-1.6678,6.6994,6.6994,0,0,1,1.1868-2.747,5.3864,5.3864,0,0,1,2.232-1.7125A6.2708,6.2708,0,0,1,19.04,105.42l.0818.0216a.0208.0208,0,0,0,.0134.0018L19.04,105.42l.0818.0216a7.9025,7.9025,0,0,0,5.3608-.5133,9.3985,9.3985,0,0,0,3.0308-2.2949,11.7373,11.7373,0,0,0,1.95-3.1247,12.0091,12.0091,0,0,0,.8738-3.5025,8.8506,8.8506,0,0,0,.0332-.897c-.0042-.2988-.0292-.5958-.0408-.9013a8.3684,8.3684,0,0,0-.313-1.8105,11.3371,11.3371,0,0,0-5.5478-6.9111q-.4116-.22-.8445-.4075c-.285-.1248-.5677-.239-.8619-.3393a9.2629,9.2629,0,0,0-3.7539-.4932,8.0447,8.0447,0,0,0-2.6558.6744,7.7483,7.7483,0,0,0-2.264,1.5373.4218.4218,0,0,1-.0587.0592L14.1,86.45c-.0229.0237-.0458.0473-.0692.0675a6.173,6.173,0,0,1-3.4823,1.7492,5.337,5.337,0,0,1-2.7766-.382,6.4413,6.4413,0,0,1-2.4144-1.7916,9.9075,9.9075,0,0,1-1.7146-2.9784A12.9818,12.9818,0,0,1,3,79.2977"/><path class="cls-1" d="M3,79.2977A12.9877,12.9877,0,0,1,3.6426,75.48,9.9176,9.9176,0,0,1,5.3573,72.5,6.4465,6.4465,0,0,1,7.772,70.7076a5.3344,5.3344,0,0,1,2.7767-.3825,6.1747,6.1747,0,0,1,3.4823,1.7495l.0587.0592.01.0081-.0692-.0673.0587.0592a7.7443,7.7443,0,0,0,2.2637,1.5373,8.04,8.04,0,0,0,2.6559.6745,9.2623,9.2623,0,0,0,3.7538-.4928c.2942-.1.5768-.2146.8621-.3394q.4323-.1865.8445-.4074a11.3387,11.3387,0,0,0,5.5482-6.9108,8.3671,8.3671,0,0,0,.3129-1.8105c.0116-.3055.0369-.6023.041-.9012a8.8776,8.8776,0,0,0-.0332-.897,12.0108,12.0108,0,0,0-.8736-3.5027,11.7356,11.7356,0,0,0-1.95-3.1247,9.3983,9.3983,0,0,0-3.0307-2.295,7.9011,7.9011,0,0,0-5.3607-.5136.4383.4383,0,0,1-.0818.0216l.0951-.0234c-.0321.0087-.0644.0177-.0951.0234a6.2711,6.2711,0,0,1-3.8995-.209A5.391,5.391,0,0,1,12.91,51.251a6.6991,6.6991,0,0,1-1.1871-2.7459,9.2668,9.2668,0,0,1-.1748-1.667,9.9843,9.9843,0,0,1,.1755-1.769,12.5235,12.5235,0,0,1,.4875-1.8348,11.4526,11.4526,0,0,1,.8565-1.8059"/><path class="cls-1" d="M13.0673,41.4284a13.4067,13.4067,0,0,1,1.12-1.6555,12.4939,12.4939,0,0,1,1.34-1.3455,10.7705,10.7705,0,0,1,1.4359-1.0469,8.7348,8.7348,0,0,1,1.5245-.6932,6.7315,6.7315,0,0,1,2.9726-.3636,5.3374,5.3374,0,0,1,2.6015,1.0534,6.29,6.29,0,0,1,2.16,3.2586l.0227.0814a.02.02,0,0,0,.0051.0124l-.0278-.0938.0227.0814a7.8851,7.8851,0,0,0,3.1533,4.3594,9.409,9.409,0,0,0,3.5162,1.4523,10.5667,10.5667,0,0,0,1.8442.1963c.3066.0059.6105-.0022.9137-.0219q.4664-.0209.9247-.0793a11.8614,11.8614,0,0,0,3.4675-1.0281,10.867,10.867,0,0,0,1.5492-.9235,8.4359,8.4359,0,0,0,1.4054-1.1933c.21-.2334.4282-.4527.6268-.6865a8.449,8.449,0,0,0,.5546-.7271,8.7714,8.7714,0,0,0,.4721-.7782c.1482-.2628.2953-.52.4226-.7921a9.7455,9.7455,0,0,0,.62-1.7012,11.626,11.626,0,0,0,.3666-1.7743,11.8743,11.8743,0,0,0-.1489-3.6876,9.319,9.319,0,0,0-1.4918-3.4872,7.9687,7.9687,0,0,0-4.4135-3.113.4276.4276,0,0,1-.0806-.02l.093.0249c-.032-.0075-.0638-.0152-.093-.0249a6.1445,6.1445,0,0,1-3.2748-2.101,5.3568,5.3568,0,0,1-1.0877-2.5865,6.1391,6.1391,0,0,1-.0249-1.4746,7.3466,7.3466,0,0,1,.3422-1.5087,10.373,10.373,0,0,1,4.6643-5.4845"/><path class="cls-1" d="M40.5658,13.5563a10.455,10.455,0,0,1,7.0579-1.4439,5.85,5.85,0,0,1,4.5055,3.3585,6.2817,6.2817,0,0,1,.2671,3.9108l-.0209.0814a.022.022,0,0,0-.0017.0134l.0226-.0948-.0209.0814a7.8115,7.8115,0,0,0,.5785,5.3385,10.253,10.253,0,0,0,5.4846,4.904,10.73,10.73,0,0,0,1.7389.5672,13.7336,13.7336,0,0,0,1.7779.2653,8.7411,8.7411,0,0,0,1.801-.0241c.2967-.0428.6013-.0739.904-.124a8.3786,8.3786,0,0,0,1.7812-.5079c.2856-.1114.5693-.2148.8419-.3453a8.8438,8.8438,0,0,0,1.5495-.93,9.7823,9.7823,0,0,0,1.3865-1.1381q.3231-.3189.6215-.67c.1983-.2365.3892-.4764.5734-.7114a10.8768,10.8768,0,0,0,1.707-3.2673,9.4127,9.4127,0,0,0,.4419-3.77,8.093,8.093,0,0,0-.71-2.6528A7.8821,7.8821,0,0,0,71.2887,14.18a.4144.4144,0,0,1-.06-.0586l.0683.0691c-.0239-.0229-.0478-.0458-.0683-.0691a6.247,6.247,0,0,1-1.7977-3.4752A5.8877,5.8877,0,0,1,71.5363,5.425a9.6142,9.6142,0,0,1,2.9576-1.7309q.4313-.1643.8881-.2992c.3043-.08.6167-.1438.9357-.1994a13.518,13.518,0,0,1,1.9849-.1917"/><path class="cls-1" d="M78.3026,3.0038q.5114-.012,1.01.0134.4977.0456.9789.1268a12.4252,12.4252,0,0,1,1.836.4515,8.84,8.84,0,0,1,3.0005,1.6669,6.52,6.52,0,0,1,1.8258,2.3714,5.38,5.38,0,0,1,.4185,2.78,5.6844,5.6844,0,0,1-.5682,1.8881A7.1757,7.1757,0,0,1,85.67,13.92l-.0586.0614-.0081.0109L85.67,13.92l-.0586.0614a7.9413,7.9413,0,0,0-2.1468,4.9478,9.3486,9.3486,0,0,0,.5416,3.7586,10.4334,10.4334,0,0,0,.7716,1.679,12.6471,12.6471,0,0,0,1.0218,1.5423,10.4,10.4,0,0,0,1.2353,1.3273c.2232.1936.45.3979.6851.5913q.3524.2877.7266.5387a8.8669,8.8669,0,0,0,.77.4612q.198.1052.4015.2l.4073.2022a8.3732,8.3732,0,0,0,1.7372.5992c.307.0607.6051.14.9066.191a8.3734,8.3734,0,0,0,.9049.1079,8.69,8.69,0,0,0,.9073.0108c.3025-.0116.5964-.0108.8948-.04a9.6839,9.6839,0,0,0,1.7754-.3275,12.7018,12.7018,0,0,0,1.7128-.5869,10.364,10.364,0,0,0,5.3511-5.0508,7.9378,7.9378,0,0,0,.4474-5.3793.41.41,0,0,1-.0235-.08l.0256.0928c-.01-.0314-.0192-.0627-.0256-.0928a6.1585,6.1585,0,0,1,.1518-3.8909,5.3424,5.3424,0,0,1,1.6788-2.2469,6.34,6.34,0,0,1,1.2606-.77,7.0005,7.0005,0,0,1,1.4758-.47,9.1316,9.1316,0,0,1,1.658-.1822,8.5414,8.5414,0,0,1,1.7809.1316,12.41,12.41,0,0,1,1.8318.4815,9.9274,9.9274,0,0,1,1.8264.8157"/><path class="cls-1" d="M116.3033,12.5428a13.608,13.608,0,0,1,1.66,1.1164q.3828.3013.7314.6212c.2277.22.44.4515.642.6836a9.4875,9.4875,0,0,1,1.783,2.9327,5.8719,5.8719,0,0,1-.62,5.59,6.2638,6.2638,0,0,1-3.2338,2.2085l-.0807.0232a.0193.0193,0,0,0-.0123.0053l.093-.0285-.0807.0232a7.91,7.91,0,0,0-2.432,1.2122,8.035,8.035,0,0,0-1.8812,1.9937,10.252,10.252,0,0,0-1.4467,7.2117,11.3755,11.3755,0,0,0,.3955,1.7874q.135.4325.3074.8465c.1165.2737.2434.5434.37.8217a8.82,8.82,0,0,0,.9367,1.5456c.09.1211.188.2361.2824.3562q.1383.1835.287.36A8.4518,8.4518,0,0,0,115.35,43.135c.24.1919.476.3823.7275.5516a9.3077,9.3077,0,0,0,1.5913.8657,9.516,9.516,0,0,0,1.69.6144,14.6422,14.6422,0,0,0,1.793.3314,10.9752,10.9752,0,0,0,3.6921-.202,9.2416,9.2416,0,0,0,3.4579-1.5316,7.8426,7.8426,0,0,0,3.0406-4.4436.42.42,0,0,1,.02-.0814l-.0244.0938c.0074-.0322.0148-.0644.0244-.0938a6.2172,6.2172,0,0,1,2.07-3.3126,5.8792,5.8792,0,0,1,5.566-.8494,9.9756,9.9756,0,0,1,3.007,1.6584,12.554,12.554,0,0,1,2.541,2.9322"/><circle class="cls-1" cx="78.3026" cy="79.2977" r="17.3192"/></g></g></svg>